<svg xmlns="http://www.w3.org/2000/svg" xmlns:xlink="http://www.w3.org/1999/xlink" version="1.1" id="圖層_1" x="0px" y="0px" width="200px" height="50px" viewBox="0 0 200 50" enable-background="new 0 0 200 50" xml:space="preserve">
  <path fill="#FFFFFF" stroke="#000000" stroke-miterlimit="10" d="M47.385,31.784"></path>
  <path fill="none" d="M21.324,10.921c0,0,44.511,37.835,64.54,30.861c20.029-6.973,63.502-37.752,143.176-14.053"></path>
  <text transform="matrix(0.8758 0.4828 -0.4828 0.8758 46.2383 29.3813)"><tspan x="0" y="0" font-family="'AdobeMingStd-Light-B5pc-H'" font-size="36">0</tspan><tspan x="25.16" y="-0.017" font-family="'AdobeMingStd-Light-B5pc-H'" font-size="36" rotate="-22.907">9</tspan><tspan x="46.312" y="-15.386" font-family="'AdobeMingStd-Light-B5pc-H'" font-size="36" rotate="-52.69">8</tspan><tspan x="56.917" y="-29.454" font-family="'AdobeMingStd-Light-B5pc-H'" font-size="36" rotate="-48.229">7</tspan></text>
  <radialGradient id="SVGID_1_" cx="99.9995" cy="25.0005" r="90.1384" gradientTransform="matrix(0.8 0 0 0.9079 19.9994 2.3013)" gradientUnits="userSpaceOnUse">
      <stop offset="0.5744" style="stop-color:#000000;stop-opacity:0"></stop>
      <stop offset="0.7977" style="stop-color:#000000;stop-opacity:0.6512"></stop>
      <stop offset="1" style="stop-color:#000000;stop-opacity:0.95"></stop>
  </radialGradient>
  <rect x="-0.001" fill="url(#SVGID_1_)" stroke="#000000" stroke-miterlimit="10" width="200.001" height="50"></rect>
  <line fill="none" stroke="#000000" stroke-miterlimit="10" x1="13.859" y1="29.805" x2="61.359" y2="9.805"></line>
  <line fill="none" stroke="#000000" stroke-miterlimit="10" x1="49.359" y1="6.055" x2="164.109" y2="50"></line>
  <line fill="none" stroke="#000000" stroke-miterlimit="10" x1="55.859" y1="42.64" x2="178.359" y2="31.784"></line>
  <line fill="none" stroke="#000000" stroke-miterlimit="10" x1="133.109" y1="25.998" x2="167.609" y2="9.805"></line>
  <line fill="none" stroke="#000000" stroke-miterlimit="10" x1="47.385" y1="1.806" x2="179.385" y2="44.555"></line>
  <line fill="none" stroke="#000000" stroke-miterlimit="10" x1="51.859" y1="29.805" x2="167.609" y2="22.055"></line>
  <line fill="none" stroke="#000000" stroke-miterlimit="10" x1="68.859" y1="3.305" x2="169.609" y2="29.805"></line>
  <line fill="none" stroke="#000000" stroke-miterlimit="10" x1="155.609" y1="4.805" x2="6.609" y2="25.93"></line>
  <line fill="none" stroke="#000000" stroke-miterlimit="10" x1="16.609" y1="2.055" x2="181.359" y2="44.305"></line>
  <line fill="none" stroke="#000000" stroke-miterlimit="10" x1="77.859" y1="44.305" x2="181.359" y2="12.055"></line>
  <line fill="none" stroke="#000000" stroke-miterlimit="10" x1="23.859" y1="37.211" x2="178.359" y2="12.99"></line>
</svg>